<svg xmlns="http://www.w3.org/2000/svg" viewBox="0 0 250 153.85"><defs><style>.cls-1{fill:none;}.cls-2{fill:#00a6d6;}</style></defs><g id="Layer_2" data-name="Layer 2"><g id="logo"><rect class="cls-1" width="250" height="153.85"/><path class="cls-2" d="M77.16,89.49c5,0,7.73-3.33,7.73-8V57.69H95.55V82C95.44,92.74,86.86,97,77.16,97S58.88,92.74,58.77,82V57.69H69.43V81.5C69.43,86.16,72.15,89.49,77.16,89.49Z"/><polygon points="31.17 96.15 41.82 96.15 41.82 65.16 53.76 65.16 53.76 57.69 19.23 57.69 19.23 65.16 31.17 65.16 31.17 96.15"/><path d="M56.76,39c-2.6.81-5.28.16-5.27-3.32,0-5.3,12.45-9.74,14.17-14.37.43-1.15.46-2.1-.09-2.07-.4,0-.09.59-1,1.47-5.16,5.15-13.79,5.15-20.42,8.11-4.35,2-17.08,8-14.15,21.32.14.63.52,2.76.91,2.76s.44-1.26.43-2.8c-.1-8,9.33-10.18,12.4-15.38.36-.62,1-1.49,1.15-1.09a2.21,2.21,0,0,1-.1,1c-1,4.27-5.43,7-4.16,10.07,1.64,4,6.38,1,7.83-1.54.39-.7.61-1.15.87-1.06s.19.87.07,1.6c-.78,4.6-1.84,7.18-5.2,9.8-1.08.84-2.77,1-2.55,1.65.05.17.79.15,1.37.09,9-.57,16.46-11.14,18.44-18,.21-.49.27-.94,0-1.11s-.66.27-1.06.62A11.42,11.42,0,0,1,56.76,39Z"/><path d="M147.76,80.22c0-4.17,2.56-7.94,6.77-7.94,4.9,0,6.82,3.36,6.82,7.94Zm18.92,3.52V81.23c0-7.4-4.19-12.63-11.78-12.63-8.47,0-12.42,6.56-12.42,14.39s3.42,14,12,14c6.39,0,11.08-3,11.88-9.11H161c-.59,3.89-2.56,5.44-6.5,5.44-5.17,0-6.89-4.61-6.89-9.54Z"/><rect x="172.82" y="57.69" width="5.07" height="38.46"/><path d="M193.75,96.15V72.94h6.18V69.41h-6.18V65.09c0-3.09,1.49-3.62,4.37-3.62.85,0,1.71.11,2.56.16v-4.2a16.5,16.5,0,0,0-3.62-.54c-4.8,0-8.37,2.41-8.37,7.53v5h-5.22v3.53h5.22V96.15Z"/><path d="M202.84,69.41v3.53h4.58V90c0,3.55.05,7,7.57,7a19.46,19.46,0,0,0,3.46-.32V92.75a12.86,12.86,0,0,1-2.66.31c-1.81,0-3.3-.91-3.3-2.82V72.94h6.18V69.41h-6.18V62.12l-5.07,1.59v5.71Z"/><path d="M106.2,96.15h13.21c16.45,0,18.18-13.92,18.18-19.22s-1.73-19.24-18.18-19.24H106.2Zm5.34-33.88h7.88C128.31,62.27,132,69,132,76.93s-3.68,14.64-12.57,14.64h-7.88Z"/></g></g></svg>